{"asset":{"version":"2.0","generator":"Unity 6000.0.29f1 glTFast 6.12.1"},"nodes":[{"name":"Main Camera","children":[6],"translation":[0,6,-5],"rotation":[0.2588191,0,0,0.965925753]},{"name":"Directional Light","children":[7],"translation":[0,3,0],"rotation":[0.408217877,0.234569684,-0.109381631,0.8754261]},{"name":"SnowMesh"},{"name":"Snow Generator","children":[2]},{"name":"Plane","mesh":0,"scale":[0.41,1,0.41]},{"name":"Fir_Tree","mesh":1,"translation":[0.07,0,0],"rotation":[2.18556941E-08,0,0,1]},{"name":"Main Camera_Orientation","rotation":[0,-1,0,-4.371139E-08],"camera":0},{"name":"Directional Light_Orientation","rotation":[0,-1,0,-4.371139E-08],"extensions":{"KHR_lights_punctual":{"light":0}}}],"extensionsRequired":["KHR_lights_punctual"],"extensionsUsed":["KHR_lights_punctual"],"buffers":[{"uri":"Tree.bin","byteLength":106048}],"bufferViews":[{"buffer":0,"byteLength":1200,"target":34963},{"buffer":0,"byteLength":5184,"byteOffset":1200,"target":34963},{"buffer":0,"byteLength":5808,"byteOffset":6384,"byteStride":48,"target":34962},{"buffer":0,"byteLength":93856,"byteOffset":12192,"byteStride":56,"target":34962}],"accessors":[{"bufferView":2,"componentType":5126,"count":121,"type":"VEC3","max":[5,1.110223E-16,5],"min":[-5,-1.110223E-16,-5]},{"bufferView":2,"componentType":5126,"count":121,"type":"VEC3","byteOffset":12},{"bufferView":2,"componentType":5126,"count":121,"type":"VEC4","byteOffset":24},{"bufferView":2,"componentType":5126,"count":121,"type":"VEC2","byteOffset":40},{"bufferView":0,"componentType":5123,"count":600,"type":"SCALAR"},{"bufferView":3,"componentType":5126,"count":1676,"type":"VEC3","max":[1.88581717,5.7132225,1.884923],"min":[-1.88573825,8.249283E-05,-1.88537455]},{"bufferView":3,"componentType":5126,"count":1676,"type":"VEC3","byteOffset":12},{"bufferView":3,"componentType":5126,"count":1676,"type":"VEC4","byteOffset":24},{"bufferView":3,"componentType":5126,"count":1676,"type":"VEC2","byteOffset":40},{"bufferView":3,"componentType":5126,"count":1676,"type":"VEC2","byteOffset":48},{"bufferView":1,"componentType":5123,"count":2592,"type":"SCALAR"}],"cameras":[{"type":"perspective","perspective":{"yfov":1.04719758,"zfar":1000,"znear":0.3}}],"images":[],"materials":[{"name":"Snow","pbrMetallicRoughness":{"metallicFactor":0,"roughnessFactor":0}},{"name":"Default","pbrMetallicRoughness":{"baseColorFactor":[0,0,0,1],"metallicFactor":0,"roughnessFactor":0.5}},{"name":"No Name","pbrMetallicRoughness":{"baseColorFactor":[0.0523203649,0.126995265,0.0274851322,1],"metallicFactor":0,"roughnessFactor":0.5}}],"meshes":[{"name":"Plane","primitives":[{"attributes":{"POSITION":0,"NORMAL":1,"TANGENT":2,"TEXCOORD_0":3},"indices":4,"material":1}]},{"name":"Fir-tree","primitives":[{"attributes":{"POSITION":5,"NORMAL":6,"TANGENT":7,"TEXCOORD_0":8,"TEXCOORD_1":9},"indices":10,"material":2}]}],"scene":0,"scenes":[{"name":"Tree","nodes":[0,1,3,4,5]}],"textures":[{"source":0}],"extensions":{"KHR_lights_punctual":{"lights":[{"type":"directional","name":"Directional Light","color":[1,0.904661357,0.6724432],"intensity":3.14159274}]}}}